<svg width="16" height="16" viewBox="0 0 16 16" fill="none" xmlns="http://www.w3.org/2000/svg">
<path d="M8.00001 12.1334C9.47277 12.1334 10.6667 10.9395 10.6667 9.46672C10.6667 7.99396 9.47277 6.80005 8.00001 6.80005C6.52725 6.80005 5.33334 7.99396 5.33334 9.46672C5.33334 10.9395 6.52725 12.1334 8.00001 12.1334Z" stroke="#ffffff" stroke-miterlimit="10" stroke-linecap="round" stroke-linejoin="round"/>
<path d="M6.95999 9.53322L7.39333 9.96655C7.51999 10.0932 7.72666 10.0932 7.85332 9.97322L9.03999 8.87988" stroke="#ffffff" stroke-linecap="round" stroke-linejoin="round"/>
<path d="M5.33335 14.6667H10.6667C13.3467 14.6667 13.8267 13.5933 13.9667 12.2867L14.4667 6.95333C14.6467 5.32667 14.18 4 11.3334 4H4.66668C1.82002 4 1.35335 5.32667 1.53335 6.95333L2.03335 12.2867C2.17335 13.5933 2.65335 14.6667 5.33335 14.6667Z" stroke="#ffffff" stroke-miterlimit="10" stroke-linecap="round" stroke-linejoin="round"/>
<path d="M5.33334 3.99992V3.46659C5.33334 2.28659 5.33334 1.33325 7.46668 1.33325H8.53334C10.6667 1.33325 10.6667 2.28659 10.6667 3.46659V3.99992" stroke="#ffffff" stroke-miterlimit="10" stroke-linecap="round" stroke-linejoin="round"/>
<path d="M14.4333 7.33325C13.28 8.17325 12 8.75992 10.6733 9.09325" stroke="#ffffff" stroke-miterlimit="10" stroke-linecap="round" stroke-linejoin="round"/>
<path d="M1.74667 7.51343C2.86001 8.27343 4.07334 8.81343 5.33334 9.12009" stroke="#ffffff" stroke-miterlimit="10" stroke-linecap="round" stroke-linejoin="round"/>
</svg>
