<svg width="16" height="16" viewBox="0 0 16 16" fill="none" xmlns="http://www.w3.org/2000/svg">
<path d="M14.44 6.96009L13.7867 9.74675C13.2267 12.1534 12.12 13.1268 10.04 12.9268C9.70667 12.9001 9.34667 12.8401 8.96001 12.7468L7.84001 12.4801C5.06001 11.8201 4.20001 10.4468 4.85334 7.66009L5.50667 4.86675C5.64001 4.30009 5.80001 3.80675 6.00001 3.40009C6.78001 1.78675 8.10667 1.35342 10.3333 1.88009L11.4467 2.14009C14.24 2.79342 15.0933 4.17342 14.44 6.96009Z" stroke="#ffffff" stroke-linecap="round" stroke-linejoin="round"/>
<path d="M10.04 12.9266C9.62668 13.2066 9.10668 13.4399 8.47335 13.6466L7.42001 13.9932C4.77335 14.8466 3.38001 14.1332 2.52001 11.4866L1.66668 8.85324C0.813347 6.20657 1.52001 4.80657 4.16668 3.95324L5.22001 3.60657C5.49335 3.5199 5.75335 3.44657 6.00001 3.3999C5.80001 3.80657 5.64001 4.2999 5.50668 4.86657L4.85335 7.6599C4.20001 10.4466 5.06001 11.8199 7.84001 12.4799L8.96001 12.7466C9.34668 12.8399 9.70668 12.8999 10.04 12.9266Z" stroke="#ffffff" stroke-linecap="round" stroke-linejoin="round"/>
<path d="M8.42667 5.68677L11.66 6.50677" stroke="#ffffff" stroke-linecap="round" stroke-linejoin="round"/>
<path d="M7.77335 8.2666L9.70668 8.75994" stroke="#ffffff" stroke-linecap="round" stroke-linejoin="round"/>
</svg>
