<svg width="16" height="16" viewBox="0 0 16 16" fill="none" xmlns="http://www.w3.org/2000/svg">
<path d="M4 8H4.01V8.01H4V8Z" stroke="#ffffff" stroke-linecap="round" stroke-linejoin="round"/>
<path d="M4.5 8C4.5 8.13261 4.44732 8.25979 4.35355 8.35355C4.25979 8.44732 4.13261 8.5 4 8.5C3.86739 8.5 3.74021 8.44732 3.64645 8.35355C3.55268 8.25979 3.5 8.13261 3.5 8C3.5 7.86739 3.55268 7.74021 3.64645 7.64645C3.74021 7.55268 3.86739 7.5 4 7.5C4.13261 7.5 4.25979 7.55268 4.35355 7.64645C4.44732 7.74021 4.5 7.86739 4.5 8ZM8 8H8.01V8.01H8V8Z" stroke="#ffffff" stroke-linecap="round" stroke-linejoin="round"/>
<path d="M8.5 8C8.5 8.13261 8.44732 8.25979 8.35355 8.35355C8.25979 8.44732 8.13261 8.5 8 8.5C7.86739 8.5 7.74021 8.44732 7.64645 8.35355C7.55268 8.25979 7.5 8.13261 7.5 8C7.5 7.86739 7.55268 7.74021 7.64645 7.64645C7.74021 7.55268 7.86739 7.5 8 7.5C8.13261 7.5 8.25979 7.55268 8.35355 7.64645C8.44732 7.74021 8.5 7.86739 8.5 8ZM11.99 8H12V8.01H11.99V8Z" stroke="#ffffff" stroke-linecap="round" stroke-linejoin="round"/>
<path d="M12.49 8C12.49 8.13261 12.4373 8.25979 12.3435 8.35355C12.2498 8.44732 12.1226 8.5 11.99 8.5C11.8574 8.5 11.7302 8.44732 11.6364 8.35355C11.5427 8.25979 11.49 8.13261 11.49 8C11.49 7.86739 11.5427 7.74021 11.6364 7.64645C11.7302 7.55268 11.8574 7.5 11.99 7.5C12.1226 7.5 12.2498 7.55268 12.3435 7.64645C12.4373 7.74021 12.49 7.86739 12.49 8Z" stroke="#ffffff" stroke-linecap="round" stroke-linejoin="round"/>
</svg>
