<svg width="97" height="24" viewBox="0 0 97 24" fill="none" xmlns="http://www.w3.org/2000/svg">
<path d="M12.6775 19.957C12.9523 20.0209 12.9775 20.3807 12.7099 20.4699L11.1299 20.9899C7.15985 22.2699 5.06985 21.1999 3.77985 17.2299L2.49985 13.2799C1.21985 9.30992 2.27985 7.20992 6.24985 5.92992L6.77385 5.75639C7.17671 5.62297 7.56878 6.02703 7.45438 6.43571C7.39768 6.63828 7.34314 6.84968 7.28985 7.06992L6.30985 11.2599C5.20985 15.9699 6.81985 18.5699 11.5299 19.6899L12.6775 19.957Z" fill="#ffffff"/>
<path d="M17.1702 3.20952L15.5002 2.81952C12.1602 2.02952 10.1702 2.67952 9.00018 5.09952C8.70018 5.70952 8.46018 6.44952 8.26018 7.29952L7.28018 11.4895C6.30018 15.6695 7.59018 17.7295 11.7602 18.7195L13.4402 19.1195C14.0202 19.2595 14.5602 19.3495 15.0602 19.3895C18.1802 19.6895 19.8402 18.2295 20.6802 14.6195L21.6602 10.4395C22.6402 6.25952 21.3602 4.18952 17.1702 3.20952ZM15.2902 13.3295C15.2002 13.6695 14.9002 13.8895 14.5602 13.8895C14.5002 13.8895 14.4402 13.8795 14.3702 13.8695L11.4602 13.1295C11.0602 13.0295 10.8202 12.6195 10.9202 12.2195C11.0202 11.8195 11.4302 11.5795 11.8302 11.6795L14.7402 12.4195C15.1502 12.5195 15.3902 12.9295 15.2902 13.3295ZM18.2202 9.94952C18.1302 10.2895 17.8302 10.5095 17.4902 10.5095C17.4302 10.5095 17.3702 10.4995 17.3002 10.4895L12.4502 9.25952C12.0502 9.15952 11.8102 8.74952 11.9102 8.34952C12.0102 7.94952 12.4202 7.70952 12.8202 7.80952L17.6702 9.03952C18.0802 9.12952 18.3202 9.53952 18.2202 9.94952Z" fill="#ffffff"/>
<path d="M31.94 14.36V11.84H34.88C35.4933 11.84 35.9933 11.64 36.38 11.24C36.78 10.84 36.98 10.3133 36.98 9.66C36.98 9.23333 36.88 8.86 36.68 8.54C36.48 8.20667 36.2067 7.94667 35.86 7.76C35.5133 7.57333 35.1133 7.48667 34.66 7.5H31.94V5L34.72 4.98C35.7067 4.96667 36.58 5.16667 37.34 5.58C38.1 5.98 38.6933 6.53333 39.12 7.24C39.5467 7.93333 39.76 8.74 39.76 9.66C39.76 10.5667 39.5533 11.3733 39.14 12.08C38.7267 12.7867 38.16 13.3467 37.44 13.76C36.72 14.16 35.8867 14.36 34.94 14.36H31.94ZM29.52 19V5H32.26V19H29.52ZM46.8955 19L46.8355 13.94C46.8355 13.34 46.7688 12.8333 46.6355 12.42C46.5155 11.9933 46.3155 11.6733 46.0355 11.46C45.7688 11.2333 45.4088 11.12 44.9555 11.12C44.5555 11.12 44.1955 11.2067 43.8755 11.38C43.5555 11.5533 43.2821 11.8333 43.0555 12.22L40.6955 11.42C40.8821 10.9933 41.1488 10.58 41.4955 10.18C41.8555 9.76667 42.3221 9.42667 42.8955 9.16C43.4821 8.89333 44.1888 8.76 45.0155 8.76C46.0155 8.76 46.8488 8.94 47.5155 9.3C48.1821 9.66 48.6821 10.1933 49.0155 10.9C49.3488 11.5933 49.5155 12.4467 49.5155 13.46V19H46.8955ZM44.1955 19.24C42.9955 19.24 42.0621 18.9733 41.3955 18.44C40.7421 17.9067 40.4155 17.1533 40.4155 16.18C40.4155 15.1133 40.7688 14.3133 41.4755 13.78C42.1955 13.2333 43.2021 12.96 44.4955 12.96H47.3755L47.4155 14.92H45.4155C44.5488 14.92 43.9488 15.0267 43.6155 15.24C43.2821 15.44 43.1155 15.7267 43.1155 16.1C43.1155 16.3933 43.2488 16.6267 43.5155 16.8C43.7821 16.96 44.1555 17.04 44.6355 17.04C45.0621 17.04 45.4355 16.94 45.7555 16.74C46.0888 16.5267 46.3488 16.26 46.5355 15.94C46.7221 15.6067 46.8155 15.2667 46.8155 14.92H47.5555C47.5555 16.28 47.2888 17.34 46.7555 18.1C46.2355 18.86 45.3821 19.24 44.1955 19.24ZM51.4158 19V9H53.8958L54.0558 10.84V19H51.4158ZM58.0358 19V13.88L60.6758 13.28V19H58.0358ZM64.6758 19V13.88L67.3158 13.28V19H64.6758ZM58.0358 13.88C58.0358 13.2 57.9558 12.6733 57.7958 12.3C57.6491 11.9267 57.4358 11.66 57.1558 11.5C56.8758 11.3267 56.5491 11.24 56.1758 11.24C55.4958 11.2267 54.9691 11.4333 54.5958 11.86C54.2358 12.2867 54.0558 12.92 54.0558 13.76H53.1758C53.1758 12.6933 53.3291 11.7933 53.6358 11.06C53.9558 10.3133 54.3958 9.74667 54.9558 9.36C55.5158 8.96 56.1758 8.76 56.9358 8.76C58.1491 8.76 59.0758 9.13333 59.7158 9.88C60.3691 10.6133 60.6891 11.7467 60.6758 13.28L58.0358 13.88ZM64.6758 13.88C64.6758 13.2 64.5958 12.6733 64.4358 12.3C64.2758 11.9267 64.0558 11.66 63.7758 11.5C63.5091 11.3267 63.1824 11.24 62.7958 11.24C62.1158 11.2267 61.5891 11.4333 61.2158 11.86C60.8558 12.2867 60.6758 12.92 60.6758 13.76H59.7958C59.7958 12.6933 59.9491 11.7933 60.2558 11.06C60.5758 10.3133 61.0158 9.74667 61.5758 9.36C62.1491 8.96 62.8158 8.76 63.5758 8.76C64.7891 8.76 65.7158 9.13333 66.3558 9.88C66.9958 10.6133 67.3158 11.7467 67.3158 13.28L64.6758 13.88ZM74.1236 19.24C73.0969 19.24 72.1836 19.02 71.3836 18.58C70.5969 18.1267 69.9769 17.5067 69.5236 16.72C69.0703 15.9333 68.8436 15.0267 68.8436 14C68.8436 12.9733 69.0636 12.0667 69.5036 11.28C69.9569 10.4933 70.5769 9.88 71.3636 9.44C72.1636 8.98667 73.0703 8.76 74.0836 8.76C75.1236 8.76 76.0369 8.98667 76.8236 9.44C77.6103 9.88 78.2236 10.4933 78.6636 11.28C79.1169 12.0667 79.3436 12.9733 79.3436 14C79.3436 15.0267 79.1169 15.9333 78.6636 16.72C78.2236 17.5067 77.6103 18.1267 76.8236 18.58C76.0503 19.02 75.1503 19.24 74.1236 19.24ZM74.1236 16.66C74.5903 16.66 74.9969 16.5467 75.3436 16.32C75.7036 16.0933 75.9836 15.78 76.1836 15.38C76.3836 14.98 76.4836 14.52 76.4836 14C76.4836 13.48 76.3769 13.02 76.1636 12.62C75.9636 12.22 75.6836 11.9067 75.3236 11.68C74.9636 11.4533 74.5503 11.34 74.0836 11.34C73.6303 11.34 73.2236 11.4533 72.8636 11.68C72.5036 11.9067 72.2236 12.22 72.0236 12.62C71.8236 13.02 71.7236 13.48 71.7236 14C71.7236 14.52 71.8236 14.98 72.0236 15.38C72.2236 15.78 72.5036 16.0933 72.8636 16.32C73.2369 16.5467 73.6569 16.66 74.1236 16.66ZM83.0553 7.44C82.6286 7.44 82.262 7.28667 81.9553 6.98C81.6486 6.67333 81.4953 6.30667 81.4953 5.88C81.4953 5.45333 81.6486 5.08667 81.9553 4.78C82.262 4.47333 82.6286 4.32 83.0553 4.32C83.482 4.32 83.8486 4.47333 84.1553 4.78C84.462 5.08667 84.6153 5.45333 84.6153 5.88C84.6153 6.30667 84.462 6.67333 84.1553 6.98C83.8486 7.28667 83.482 7.44 83.0553 7.44ZM80.8353 23.3C80.0753 23.3 79.3486 23.0933 78.6553 22.68L79.7153 20.5C79.9286 20.6067 80.122 20.6867 80.2953 20.74C80.482 20.8067 80.642 20.84 80.7753 20.84C81.4153 20.84 81.7353 20.42 81.7353 19.58V9H84.3753V19.76C84.3753 20.8933 84.0686 21.7667 83.4553 22.38C82.842 22.9933 81.9686 23.3 80.8353 23.3ZM92.7556 19L92.6956 13.94C92.6956 13.34 92.629 12.8333 92.4956 12.42C92.3756 11.9933 92.1756 11.6733 91.8956 11.46C91.629 11.2333 91.269 11.12 90.8156 11.12C90.4156 11.12 90.0556 11.2067 89.7356 11.38C89.4156 11.5533 89.1423 11.8333 88.9156 12.22L86.5556 11.42C86.7423 10.9933 87.009 10.58 87.3556 10.18C87.7156 9.76667 88.1823 9.42667 88.7556 9.16C89.3423 8.89333 90.049 8.76 90.8756 8.76C91.8756 8.76 92.709 8.94 93.3756 9.3C94.0423 9.66 94.5423 10.1933 94.8756 10.9C95.209 11.5933 95.3756 12.4467 95.3756 13.46V19H92.7556ZM90.0556 19.24C88.8556 19.24 87.9223 18.9733 87.2556 18.44C86.6023 17.9067 86.2756 17.1533 86.2756 16.18C86.2756 15.1133 86.629 14.3133 87.3356 13.78C88.0556 13.2333 89.0623 12.96 90.3556 12.96H93.2356L93.2756 14.92H91.2756C90.409 14.92 89.809 15.0267 89.4756 15.24C89.1423 15.44 88.9756 15.7267 88.9756 16.1C88.9756 16.3933 89.109 16.6267 89.3756 16.8C89.6423 16.96 90.0156 17.04 90.4956 17.04C90.9223 17.04 91.2956 16.94 91.6156 16.74C91.949 16.5267 92.209 16.26 92.3956 15.94C92.5823 15.6067 92.6756 15.2667 92.6756 14.92H93.4156C93.4156 16.28 93.149 17.34 92.6156 18.1C92.0956 18.86 91.2423 19.24 90.0556 19.24Z" fill="#ffffff"/>
</svg>
